<mxfile host="app.diagrams.net" modified="2024-04-08T02:10:19.760Z" agent="Mozilla/5.0 (Windows NT 10.0; Win64; x64) AppleWebKit/537.36 (KHTML, like Gecko) Chrome/123.0.0.0 Safari/537.36" version="24.2.2" etag="SvHvg_GbaFP0S72f4h5_" type="github">
  <diagram name="第 1 页" id="xDeUuq_dLQ9xrVxdTuq4">
    <mxGraphModel>
      <root>
        <mxCell id="0" />
        <mxCell id="1" parent="0" />
      </root>
    </mxGraphModel>
  </diagram>
</mxfile>
